<?xml version="1.0" encoding="UTF-8"?>
<svg id="_图层_1" xmlns="http://www.w3.org/2000/svg" viewBox="0 0 1412.43 439">
  <defs>
    <style>
      .cls-1 {
        fill: #ff2442;
      }

      .cls-2 {
        fill: #fff;
      }
    </style>
  </defs>
  <rect class="cls-1" x="0" y="0" width="1412.43" height="439" rx="219.5" ry="219.5"/>
  <path class="cls-2" d="M941.08,273.95c-15.48,8.89-31.74,11.91-48.9,8.22-28.12-6.04-48.66-21.88-55.97-50.15-7.46-28.78,1.22-53.9,24.61-72.69,22.4-17.99,55.29-19.39,79.85-4.5,24.77,15.01,37.88,44.11,33.05,72.76-.88,5.2-1.51,10.63-1.05,15.84,1.17,12.99,11.2,22.48,25.42,24.9,11.59,1.98,24.09-4.8,29.51-16,5.44-11.25,3.02-25.14-6.34-33.44-7.25-6.43-16.13-8.72-25.6-7.09-4.56.79-6.31-.74-7.61-4.68-2.8-8.53-5.62-17.08-8.91-25.42-1.88-4.79-.03-6.73,4.21-7.93,9.77-2.8,19.76-3.35,29.67-1.72,21.53,3.54,38.99,14.15,49.74,33.3,14.34,25.53,13.11,51.41-3.5,75.41-16.06,23.2-39.18,32.17-67.02,27.95-20.83-3.16-37.24-13.66-48.74-31.54-.62-.96-1.39-1.84-2.44-3.24h.02ZM897.23,241.28c15.73,4.25,30.54-3.91,34.86-19.18,4.51-15.95-4.28-31.26-20.41-35.57-15.44-4.13-30.62,4.66-34.89,20.2-4.24,15.45,4.51,30.27,20.43,34.57h0Z"/>
  <path class="cls-2" d="M778.07,229.93c.16-2.75.44-5.49.45-8.24.05-29.16.01-58.32.09-87.48.03-9.83,2.24-11.94,12.13-12.03,7-.07,14-.14,21-.05,8.19.1,11.12,3.06,11.13,11.26.04,26.16.02,52.32.01,78.49,0,28,.02,55.99-.06,83.99-.03,10.41-2.66,12.94-13.03,13-6.83.04-13.69-.33-20.49.11-6.46.42-10.55-2.37-14.07-7.46-14-20.27-28.17-40.43-42.36-60.57-7.77-11.02-15.69-21.94-23.6-32.86-1.12-1.55-2.59-2.84-4.88-5.31-.23,3.57-.5,5.8-.51,8.02-.04,28.16-.03,56.32-.07,84.48,0,1.99-.08,4.01-.39,5.97-.72,4.55-3.48,7.27-8.07,7.38-9.16.22-18.33.32-27.49.08-6.11-.16-9.18-4.14-9.19-11.27-.04-25.16-.03-50.32-.02-75.49.01-29.33.02-58.66.07-87.99.01-8.96,2.64-11.67,11.52-11.79,7.83-.1,15.67.22,23.49-.06,4.91-.18,8.18,1.83,10.86,5.69,11.49,16.53,23.08,33,34.61,49.5,11.06,15.83,22.08,31.67,33.15,47.49,1.31,1.88,2.8,3.64,4.21,5.45.5-.11,1-.21,1.5-.32h0Z"/>
  <path class="cls-2" d="M195.08,215.45c0-26.49-.01-52.98.02-79.47,0-11.08,2.56-13.83,13.37-13.85,23.99-.05,47.99-.38,71.97.25,19.14.5,36.38,6.7,49.11,21.85,20.67,24.6,17.92,66.63-5.57,88.4-2.18,2.02-4.66,3.83-7.25,5.27-3.16,1.76-3.12,3.69-1.48,6.51,10.38,17.83,20.66,35.72,30.97,53.59.75,1.29,1.54,2.59,2.06,3.98,1.41,3.76,0,6.55-4.06,6.63-12.14.25-24.32.44-36.43-.3-2.85-.18-6.42-3.6-8.04-6.45-12.1-21.26-23.81-42.75-35.62-64.18-3.37-6.12-6.71-12.27-10.04-18.41-3.11-5.74-2.39-6.82,3.95-7.13,8.11-.39,16.39-.26,24.27-1.89,11.42-2.37,17.37-12.5,16.5-25.61-.75-11.3-7.57-19.07-19.22-19.99-11.75-.93-23.61-.63-35.42-.75-4.27-.04-4.42,3.02-4.41,6.26.04,26.99.03,53.98.04,80.97,0,14.99.06,29.99.03,44.98-.02,10.27-2.26,12.58-12.62,12.79-7.16.15-14.33.19-21.49,0-7.21-.2-10.57-3.65-10.63-10.99-.12-14.33-.02-28.65,0-42.98v-39.48h0Z"/>
  <path class="cls-2" d="M595.49,185.83c.1-1.85.28-3.76.29-5.68.03-15.5,0-31,.04-46.49.02-8.89,2.65-11.52,11.65-11.6,6.5-.06,13-.03,19.5.06,8.41.12,10.99,2.75,10.99,11.18,0,29.66-.01,59.33-.01,88.99,0,24.16.04,48.33.02,72.49,0,2.32,0,4.7-.45,6.96-.85,4.21-3.41,6.83-7.94,6.87-8.5.07-17,.13-25.49.02-4-.05-6.43-2.42-7.38-6.24-.47-1.92-.74-3.89-1.17-6.19-1.05.55-2.01.85-2.72,1.45-19.29,16.09-40.74,17.22-62.73,7.51-28.12-12.42-42.84-43.2-37.24-75.17,4.16-23.75,16.18-42.15,38.61-51.69,21.22-9.03,42.23-8.05,61.26,6.77.39.3.79.62,1.24.81.26.11.63,0,1.52-.06h.01ZM566.65,210.25c-18.01-.39-31.24,12.4-31.69,30.66-.46,18.4,12.4,32.03,30.5,32.32,17.5.29,30.67-12.68,31.17-30.7.5-18.16-12.25-31.89-29.98-32.28h0Z"/>
  <path class="cls-2" d="M1124.93,296.01c-.79,3.5-.61,6.74-2.15,8.45-1.87,2.08-5.11,3.82-7.88,4.03-7.12.55-14.31.24-21.47.14-7.63-.1-10.57-3.01-10.59-10.68-.06-22.48-.02-44.97-.02-67.45,0-32.14,0-64.29.03-96.43,0-9.39,2.43-11.84,11.77-11.94,6.66-.07,13.32-.05,19.98.02,7.51.08,10.23,2.67,10.28,10.31.11,15.65,0,31.31-.02,46.96v7.14c4.9-3.03,8.82-6.08,13.22-8.06,30.15-13.53,64.59-1.91,80.69,27.37,14.13,25.69,12.3,62.48-10.65,86.33-19.2,19.95-51.29,24.83-73.72,10.75-3.17-1.99-6.06-4.42-9.48-6.94h.01ZM1155.12,273.07c18.16-.22,30.97-13.43,30.68-31.62-.28-17.66-13.78-30.99-31.24-30.85-17.52.14-30.66,14.05-30.37,32.16.28,17.72,13.36,30.53,30.93,30.32h0Z"/>
  <path class="cls-2" d="M389.98,252.61c-.32,9.21,8.81,21.13,18.46,23.52,13.89,3.44,26.85,2.31,37.21-9.02,2.83-3.09,5.54-3.44,9.18-1.16,6.35,3.96,12.95,7.5,19.46,11.2,4.38,2.49,4.89,4.24,1.83,8.28-9.66,12.73-22.39,20.64-38.03,23.88-19.95,4.13-39.24,2.28-57.15-7.67-19.21-10.67-30.25-27.42-32.55-49.23-2.87-27.21,4.85-50.6,27.93-66.99,25.09-17.81,62.32-16.94,85.78,2.59,17.92,14.92,24.03,35.33,22.69,58.18-.29,5.04-3.45,6.46-8.21,6.44-26.65-.12-53.31-.04-79.96-.03h-6.64ZM443.47,225.25c-1.04-13.38-13.52-20.44-24.71-20.4-13.52.04-26.32,9.34-27.23,20.4h51.94Z"/>
</svg>